<svg width="24" height="28" viewBox="0 0 24 28" fill="none" xmlns="http://www.w3.org/2000/svg">
<path d="M22.5655 9.77543C22.1797 9.57322 21.7426 9.46566 21.3022 9.46566C20.8618 9.46566 20.4247 9.57322 20.0389 9.77543C19.9724 9.80985 19.9092 9.84857 19.8459 9.88729C19.7348 9.70551 19.6029 9.53665 19.4492 9.38499C18.9401 8.8827 18.2621 8.60519 17.5416 8.60519C17.0784 8.60519 16.6326 8.72351 16.2413 8.93647C16.0396 8.49549 15.7148 8.10613 15.281 7.81572C14.9757 7.61136 14.628 7.47368 14.2661 7.41022C13.7124 7.3145 13.1816 7.38656 12.7183 7.58339V2.71961C12.7183 2.02264 12.4676 1.34072 11.9826 0.83412C11.4539 0.283422 10.7301 -0.014514 9.96167 0.000544176C8.48579 0.031736 7.32274 1.2622 7.32274 2.71961V13.5862L6.22727 12.2848C4.98683 10.8123 2.76319 10.6101 1.27096 11.833C0.463257 12.4945 0 13.469 0 14.5058C0 15.3136 0.288855 16.102 0.813153 16.7237L7.02734 24.1011C7.6977 24.8981 8.06722 25.907 8.06722 26.9428V27.7495H16.9062C20.8237 27.7495 24 24.6152 24 20.7496V12.1266C24 11.4168 23.7199 10.7488 23.2097 10.2444C23.019 10.0562 22.8021 9.89804 22.5655 9.77435V9.77543ZM22.365 20.7507C22.365 23.7257 19.9212 26.1372 16.9062 26.1372H9.64774C9.49405 25.0153 9.02425 23.9494 8.28522 23.0718L2.07103 15.6944C1.78981 15.3609 1.63503 14.9393 1.63503 14.5069C1.63503 13.9519 1.88355 13.4292 2.3152 13.0753C3.11418 12.4192 4.30448 12.5278 4.96939 13.3173L8.95776 18.0531V2.70348C8.95776 2.11514 9.43083 1.60961 10.0282 1.61392C10.3028 1.61607 10.5612 1.71932 10.7574 1.90647C10.9732 2.11191 11.0833 2.40339 11.0833 2.69918V13.6239C11.0833 14.0498 11.4332 14.3951 11.8648 14.3951H11.9368C12.3684 14.3951 12.7183 14.0498 12.7183 13.6239V10.0712C12.7183 9.48287 13.1914 8.97735 13.7887 8.98165C14.0634 8.9838 14.3217 9.08706 14.5179 9.27421C14.7338 9.47964 14.8439 9.77112 14.8439 10.0669V14.4843C14.8439 14.9103 15.1938 15.2555 15.6254 15.2555H15.6973C16.129 15.2555 16.4789 14.9103 16.4789 14.4843V11.2673C16.4789 11.1124 16.5116 10.9661 16.5781 10.8263C16.7503 10.4573 17.1285 10.2186 17.5416 10.2186C17.8261 10.2186 18.0932 10.3272 18.2938 10.5251C18.381 10.6112 18.454 10.7144 18.5074 10.8295C18.5717 10.965 18.6044 11.1124 18.6044 11.2673V15.2555C18.6044 15.6814 18.9543 16.0267 19.386 16.0267H19.4579C19.8895 16.0267 20.2394 15.6814 20.2394 15.2555V12.1277C20.2394 11.7384 20.4564 11.3834 20.8063 11.1995C21.1125 11.0392 21.4908 11.0382 21.7993 11.1995C21.893 11.249 21.9791 11.3103 22.0532 11.3834C22.2549 11.5824 22.365 11.8459 22.365 12.1266V20.7507Z" fill="#2C4255"/>
<path d="M22.365 20.7507C22.365 23.7257 19.9212 26.1372 16.9062 26.1372H9.64774C9.49405 25.0153 9.02425 23.9494 8.28522 23.0718L2.07103 15.6944C1.78981 15.3609 1.63503 14.9393 1.63503 14.5069C1.63503 13.9519 1.88355 13.4292 2.3152 13.0753C3.11418 12.4192 4.30448 12.5278 4.96939 13.3173L8.95776 18.0531V2.70348C8.95776 2.11514 9.43083 1.60961 10.0282 1.61392C10.3028 1.61607 10.5612 1.71932 10.7574 1.90647C10.9732 2.11191 11.0833 2.40339 11.0833 2.69918V13.6239C11.0833 14.0498 11.4332 14.3951 11.8648 14.3951H11.9368C12.3684 14.3951 12.7183 14.0498 12.7183 13.6239V10.0712C12.7183 9.48287 13.1914 8.97735 13.7887 8.98165C14.0634 8.9838 14.3217 9.08706 14.5179 9.27421C14.7338 9.47964 14.8439 9.77112 14.8439 10.0669V14.4843C14.8439 14.9103 15.1938 15.2555 15.6254 15.2555H15.6973C16.129 15.2555 16.4789 14.9103 16.4789 14.4843V11.2673C16.4789 11.1124 16.5116 10.9661 16.5781 10.8263C16.7503 10.4573 17.1285 10.2186 17.5416 10.2186C17.8261 10.2186 18.0932 10.3272 18.2938 10.5251C18.381 10.6112 18.454 10.7144 18.5074 10.8295C18.5717 10.965 18.6044 11.1124 18.6044 11.2673V15.2555C18.6044 15.6814 18.9543 16.0267 19.386 16.0267H19.4579C19.8895 16.0267 20.2394 15.6814 20.2394 15.2555V12.1277C20.2394 11.7384 20.4564 11.3834 20.8063 11.1995C21.1125 11.0392 21.4908 11.0382 21.7993 11.1995C21.893 11.249 21.9791 11.3103 22.0532 11.3834C22.2549 11.5824 22.365 11.8459 22.365 12.1266V20.7507Z" fill="#F5F5F5"/>
</svg>
