<svg width="20" height="20" viewBox="0 0 20 20" fill="none" xmlns="http://www.w3.org/2000/svg">
<g clip-path="url(#clip0_4006_836)">
<path d="M9.99629 2.19694C12.5387 2.19694 12.8398 2.2081 13.8397 2.2527C14.7689 2.29359 15.2707 2.4497 15.6053 2.5798C16.0476 2.75078 16.3673 2.95893 16.6981 3.28975C17.0326 3.62428 17.237 3.94023 17.408 4.38255C17.5381 4.71709 17.6942 5.2226 17.7351 6.14814C17.7797 7.15173 17.7909 7.45281 17.7909 9.99154C17.7909 12.534 17.7797 12.8351 17.7351 13.8349C17.6942 14.7642 17.5381 15.266 17.408 15.6005C17.237 16.0428 17.0289 16.3625 16.6981 16.6933C16.3635 17.0279 16.0476 17.2323 15.6053 17.4033C15.2707 17.5334 14.7652 17.6895 13.8397 17.7304C12.8361 17.775 12.535 17.7861 9.99629 17.7861C7.45385 17.7861 7.15277 17.775 6.15289 17.7304C5.22363 17.6895 4.72183 17.5334 4.3873 17.4033C3.94498 17.2323 3.62531 17.0241 3.2945 16.6933C2.95997 16.3588 2.75553 16.0428 2.58455 15.6005C2.45445 15.266 2.29834 14.7605 2.25745 13.8349C2.21284 12.8313 2.20169 12.5303 2.20169 9.99154C2.20169 7.4491 2.21284 7.14802 2.25745 6.14814C2.29834 5.21888 2.45445 4.71709 2.58455 4.38255C2.75553 3.94023 2.96368 3.62056 3.2945 3.28975C3.62903 2.95522 3.94498 2.75078 4.3873 2.5798C4.72183 2.4497 5.22735 2.29359 6.15289 2.2527C7.15277 2.2081 7.45385 2.19694 9.99629 2.19694ZM9.99629 0.483398C7.41296 0.483398 7.08958 0.494549 6.07483 0.539154C5.0638 0.583758 4.36872 0.747307 3.76656 0.981479C3.13838 1.2268 2.60685 1.55018 2.07903 2.08172C1.5475 2.60953 1.22412 3.14107 0.978794 3.76553C0.744621 4.3714 0.581072 5.06277 0.536468 6.0738C0.491864 7.09226 0.480713 7.41564 0.480713 9.99897C0.480713 12.5823 0.491864 12.9057 0.536468 13.9204C0.581072 14.9315 0.744621 15.6265 0.978794 16.2287C1.22412 16.8569 1.5475 17.3884 2.07903 17.9162C2.60685 18.444 3.13838 18.7711 3.76284 19.0127C4.36872 19.2469 5.06008 19.4105 6.07111 19.4551C7.08586 19.4997 7.40924 19.5108 9.99257 19.5108C12.5759 19.5108 12.8993 19.4997 13.914 19.4551C14.9251 19.4105 15.6201 19.2469 16.2223 19.0127C16.8468 18.7711 17.3783 18.444 17.9061 17.9162C18.4339 17.3884 18.761 16.8569 19.0026 16.2324C19.2368 15.6265 19.4004 14.9352 19.445 13.9241C19.4896 12.9094 19.5007 12.586 19.5007 10.0027C19.5007 7.41936 19.4896 7.09598 19.445 6.08123C19.4004 5.0702 19.2368 4.37512 19.0026 3.77296C18.7685 3.14107 18.4451 2.60953 17.9135 2.08172C17.3857 1.5539 16.8542 1.2268 16.2297 0.985196C15.6239 0.751024 14.9325 0.587475 13.9215 0.542871C12.903 0.49455 12.5796 0.483398 9.99629 0.483398Z" fill="#F4F3ED"/>
<path d="M9.9964 5.11084C7.29785 5.11084 5.10852 7.30017 5.10852 9.99872C5.10852 12.6973 7.29785 14.8866 9.9964 14.8866C12.695 14.8866 14.8843 12.6973 14.8843 9.99872C14.8843 7.30017 12.695 5.11084 9.9964 5.11084ZM9.9964 13.1693C8.24569 13.1693 6.82578 11.7494 6.82578 9.99872C6.82578 8.24801 8.24569 6.8281 9.9964 6.8281C11.7471 6.8281 13.167 8.24801 13.167 9.99872C13.167 11.7494 11.7471 13.1693 9.9964 13.1693Z" fill="#F4F3ED"/>
<path d="M16.2189 4.91798C16.2189 5.54988 15.7059 6.05911 15.0778 6.05911C14.4459 6.05911 13.9366 5.54616 13.9366 4.91798C13.9366 4.28609 14.4496 3.77686 15.0778 3.77686C15.7059 3.77686 16.2189 4.28981 16.2189 4.91798Z" fill="#F4F3ED"/>
</g>
<defs>
<clipPath id="clip0_4006_836">
<rect width="20" height="20" fill="white"/>
</clipPath>
</defs>
</svg>
