<svg width="278" height="75" viewBox="0 0 278 75" fill="none" xmlns="http://www.w3.org/2000/svg">
<g clip-path="url(#clip0_3888_6)">
<path d="M8.56 65.03H8.59C9.22 64.09 9.83 63.73 10.8 63.73C12.24 63.73 13.3 64.67 13.3 66.48V70.58H12.58V66.75C12.58 65.24 11.94 64.43 10.76 64.43C9.79 64.43 9.16 64.89 8.56 65.87V70.58H7.84V63.87H8.56V65.04V65.03Z" fill="white"/>
<path d="M20.95 70.58H20.23V70.06C19.51 70.55 19 70.72 18.24 70.72C16.33 70.72 14.85 69.19 14.85 67.22C14.85 65.25 16.29 63.74 18.24 63.74C18.93 63.74 19.41 63.88 20.23 64.28V60.39H20.95V70.58ZM20.23 65.06C19.5 64.6 18.97 64.43 18.27 64.43C16.71 64.43 15.61 65.57 15.61 67.17C15.61 68.77 16.81 70.01 18.42 70.01C19.09 70.01 19.54 69.86 20.23 69.4V65.07V65.06Z" fill="white"/>
<path d="M23.22 66.98C23.01 68.7 24.37 70.01 25.9 70.01C26.8 70.01 27.53 69.71 28.4 69.01V69.82C27.61 70.43 26.78 70.72 25.81 70.72C23.87 70.72 22.46 69.23 22.46 67.15C22.46 65.07 23.76 63.74 25.54 63.74C26.97 63.74 28.51 64.74 28.51 66.98H23.22ZM27.66 66.39C27.41 65.08 26.69 64.43 25.54 64.43C24.39 64.43 23.57 65.16 23.31 66.39H27.66Z" fill="white"/>
<path d="M30.68 64.24C31.44 63.87 32 63.73 32.7 63.73C34.61 63.73 36.02 65.2 36.02 67.2C36.02 69.2 34.56 70.71 32.67 70.71C32 70.71 31.44 70.58 30.68 70.2V74.01H29.96V63.86H30.68V64.23V64.24ZM30.68 69.5C31.37 69.87 31.86 70.01 32.53 70.01C34.15 70.01 35.22 68.9 35.22 67.26C35.22 65.62 34.05 64.43 32.44 64.43C31.84 64.43 31.38 64.55 30.68 64.92V69.49V69.5Z" fill="white"/>
<path d="M38.01 66.98C37.8 68.7 39.16 70.01 40.69 70.01C41.59 70.01 42.32 69.71 43.19 69.01V69.82C42.4 70.43 41.57 70.72 40.6 70.72C38.66 70.72 37.25 69.23 37.25 67.15C37.25 65.07 38.55 63.74 40.33 63.74C41.76 63.74 43.3 64.74 43.3 66.98H38.01ZM42.45 66.39C42.2 65.08 41.48 64.43 40.33 64.43C39.18 64.43 38.36 65.16 38.1 66.39H42.45Z" fill="white"/>
<path d="M45.45 65.03H45.48C46.11 64.09 46.72 63.73 47.69 63.73C49.13 63.73 50.19 64.67 50.19 66.48V70.58H49.47V66.75C49.47 65.24 48.83 64.43 47.65 64.43C46.68 64.43 46.05 64.89 45.45 65.87V70.58H44.73V63.87H45.45V65.04V65.03Z" fill="white"/>
<path d="M57.85 70.58H57.13V70.06C56.41 70.55 55.9 70.72 55.14 70.72C53.23 70.72 51.75 69.19 51.75 67.22C51.75 65.25 53.18 63.74 55.14 63.74C55.83 63.74 56.31 63.88 57.13 64.28V60.39H57.85V70.58ZM57.13 65.06C56.4 64.6 55.87 64.43 55.17 64.43C53.61 64.43 52.51 65.57 52.51 67.17C52.51 68.77 53.71 70.01 55.32 70.01C55.99 70.01 56.44 69.86 57.13 69.4V65.07V65.06Z" fill="white"/>
<path d="M60.12 66.98C59.91 68.7 61.27 70.01 62.8 70.01C63.7 70.01 64.43 69.71 65.3 69.01V69.82C64.51 70.43 63.68 70.72 62.71 70.72C60.77 70.72 59.36 69.23 59.36 67.15C59.36 65.07 60.66 63.74 62.44 63.74C63.87 63.74 65.41 64.74 65.41 66.98H60.12ZM64.56 66.39C64.31 65.08 63.59 64.43 62.44 64.43C61.29 64.43 60.47 65.16 60.21 66.39H64.56Z" fill="white"/>
<path d="M67.57 65.03H67.6C68.23 64.09 68.84 63.73 69.81 63.73C71.25 63.73 72.31 64.67 72.31 66.48V70.58H71.59V66.75C71.59 65.24 70.95 64.43 69.77 64.43C68.8 64.43 68.17 64.89 67.57 65.87V70.58H66.85V63.87H67.57V65.04V65.03Z" fill="white"/>
<path d="M75.49 63.87H77.37V64.45H75.49V68.44C75.49 69.59 75.5 70.01 76.49 70.01C76.89 70.01 77.12 69.95 77.72 69.68V70.37C77.59 70.44 77.36 70.52 77.11 70.59C76.86 70.65 76.57 70.71 76.33 70.71C75.58 70.71 74.77 70.29 74.77 69.27V64.44H72.96V63.86H74.77V62.26L75.26 61.63H75.48V63.86L75.49 63.87Z" fill="white"/>
<path d="M91.59 61.97C90.32 61.3 89.17 60.98 87.96 60.98C85.42 60.98 83.51 62.91 83.51 65.49C83.51 68.07 85.41 69.98 88.07 69.98C89.22 69.98 90.31 69.67 91.7 68.93V69.75C90.52 70.38 89.26 70.71 88.08 70.71C84.97 70.71 82.65 68.48 82.65 65.49C82.65 62.5 85.21 60.24 88 60.24C89.14 60.24 90.35 60.52 91.59 61.09V61.96V61.97Z" fill="white"/>
<path d="M96.09 70.71C94.13 70.71 92.67 69.22 92.67 67.23C92.67 65.24 94.14 63.73 96.09 63.73C98.04 63.73 99.5 65.22 99.5 67.23C99.5 69.24 98.05 70.71 96.09 70.71ZM96.09 64.44C94.57 64.44 93.43 65.62 93.43 67.24C93.43 68.86 94.57 70.02 96.09 70.02C97.61 70.02 98.74 68.84 98.74 67.24C98.74 65.64 97.6 64.44 96.09 64.44Z" fill="white"/>
<path d="M104.25 66.86H100.71V67.56H104.25V66.86Z" fill="white"/>
<path d="M106.18 66.98C105.97 68.7 107.33 70.01 108.86 70.01C109.76 70.01 110.49 69.71 111.36 69.01V69.82C110.57 70.43 109.74 70.72 108.77 70.72C106.83 70.72 105.42 69.23 105.42 67.15C105.42 65.07 106.72 63.74 108.5 63.74C109.94 63.74 111.48 64.74 111.48 66.98H106.19H106.18ZM110.62 66.39C110.37 65.08 109.65 64.43 108.5 64.43C107.35 64.43 106.53 65.16 106.27 66.39H110.62Z" fill="white"/>
<path d="M118.69 70.58H117.97V70.06C117.25 70.55 116.74 70.72 115.98 70.72C114.07 70.72 112.59 69.19 112.59 67.22C112.59 65.25 114.03 63.74 115.98 63.74C116.67 63.74 117.15 63.88 117.97 64.28V60.39H118.69V70.58ZM117.98 65.06C117.25 64.6 116.72 64.43 116.02 64.43C114.47 64.43 113.36 65.57 113.36 67.17C113.36 68.77 114.56 70.01 116.17 70.01C116.84 70.01 117.29 69.86 117.98 69.4V65.07V65.06Z" fill="white"/>
<path d="M125.27 69.47H125.24C124.63 70.34 124.07 70.71 123.03 70.71C121.88 70.71 120.53 70.02 120.53 68.02V63.87H121.25V68.01C121.25 69.37 122.1 70.01 123.09 70.01C124.15 70.01 124.69 69.49 125.27 68.58V63.87H125.99V70.58H125.27V69.47Z" fill="white"/>
<path d="M132.6 64.85C131.82 64.52 131.42 64.43 130.85 64.43C129.36 64.43 128.33 65.56 128.33 67.24C128.33 68.92 129.33 70.01 130.92 70.01C131.53 70.01 131.98 69.92 132.73 69.62V70.37C131.97 70.62 131.49 70.71 130.86 70.71C128.89 70.71 127.57 69.35 127.57 67.32C127.57 65.29 128.92 63.73 130.83 63.73C131.41 63.73 131.86 63.82 132.61 64.06V64.85H132.6Z" fill="white"/>
<path d="M139.46 70.01L139.34 70.1C138.67 70.61 138.38 70.71 138.1 70.71C137.77 70.71 137.68 70.55 137.62 69.87C136.87 70.45 136.23 70.71 135.51 70.71C134.49 70.71 133.7 69.95 133.7 69.01C133.7 67.26 135.66 66.65 137.62 66.56V65.71C137.62 64.81 137.13 64.33 136.12 64.33C135.4 64.33 134.86 64.58 134.07 65.18V64.45C134.89 63.94 135.5 63.73 136.24 63.73C137.08 63.73 138.33 64.07 138.33 65.48V69.67C138.33 69.94 138.37 70.01 138.5 70.01C138.66 70.01 139.1 69.7 139.46 69.41V70.01ZM137.62 67.16C135.87 67.09 134.42 67.85 134.42 69.01C134.42 69.64 134.99 70.12 135.75 70.12C136.39 70.12 136.92 69.88 137.62 69.25V67.16Z" fill="white"/>
<path d="M141.79 63.87H143.67V64.45H141.79V68.44C141.79 69.59 141.8 70.01 142.79 70.01C143.19 70.01 143.42 69.95 144.02 69.68V70.37C143.89 70.44 143.66 70.52 143.41 70.59C143.15 70.65 142.87 70.71 142.63 70.71C141.88 70.71 141.08 70.29 141.08 69.27V64.44H139.27V63.86H141.08V62.26L141.57 61.63H141.8V63.86L141.79 63.87Z" fill="white"/>
<path d="M145.83 61.61H145.11V60.39H145.83V61.61ZM145.83 70.58H145.11V63.87H145.83V70.58Z" fill="white"/>
<path d="M150.93 70.71C148.97 70.71 147.51 69.22 147.51 67.23C147.51 65.24 148.97 63.73 150.93 63.73C152.89 63.73 154.34 65.22 154.34 67.23C154.34 69.24 152.89 70.71 150.93 70.71ZM150.93 64.44C149.41 64.44 148.27 65.62 148.27 67.24C148.27 68.86 149.41 70.02 150.93 70.02C152.45 70.02 153.58 68.84 153.58 67.24C153.58 65.64 152.44 64.44 150.93 64.44Z" fill="white"/>
<path d="M156.62 65.03H156.65C157.28 64.09 157.89 63.73 158.86 63.73C160.29 63.73 161.36 64.67 161.36 66.48V70.58H160.64V66.75C160.64 65.24 160 64.43 158.82 64.43C157.85 64.43 157.22 64.89 156.62 65.87V70.58H155.9V63.87H156.62V65.04V65.03Z" fill="white"/>
<path d="M168.6 70.01L168.48 70.1C167.81 70.61 167.52 70.71 167.24 70.71C166.91 70.71 166.82 70.55 166.76 69.87C166.01 70.45 165.37 70.71 164.65 70.71C163.63 70.71 162.84 69.95 162.84 69.01C162.84 67.26 164.8 66.65 166.76 66.56V65.71C166.76 64.81 166.27 64.33 165.27 64.33C164.55 64.33 164.01 64.58 163.22 65.18V64.45C164.04 63.94 164.65 63.73 165.39 63.73C166.23 63.73 167.48 64.07 167.48 65.48V69.67C167.48 69.94 167.52 70.01 167.65 70.01C167.81 70.01 168.25 69.7 168.61 69.41V70.01H168.6ZM166.76 67.16C165.01 67.09 163.56 67.85 163.56 69.01C163.56 69.64 164.13 70.12 164.89 70.12C165.53 70.12 166.05 69.88 166.76 69.25V67.16Z" fill="white"/>
<path d="M170.45 60.39H169.73V70.58H170.45V60.39Z" fill="white"/>
<path d="M180.41 60.38C184.74 60.38 185.97 63.23 185.97 65.48C185.97 67.84 184.58 70.58 180.54 70.58H176.83V60.39H180.4L180.41 60.38ZM177.63 69.92H180.5C182.95 69.92 185.12 68.35 185.12 65.48C185.12 62.86 183.22 61.04 180.45 61.04H177.63V69.92Z" fill="white"/>
<path d="M193.01 70.01L192.89 70.1C192.22 70.61 191.93 70.71 191.65 70.71C191.32 70.71 191.23 70.55 191.17 69.87C190.42 70.45 189.78 70.71 189.06 70.71C188.04 70.71 187.25 69.95 187.25 69.01C187.25 67.26 189.21 66.65 191.17 66.56V65.71C191.17 64.81 190.68 64.33 189.68 64.33C188.96 64.33 188.42 64.58 187.63 65.18V64.45C188.45 63.94 189.06 63.73 189.8 63.73C190.64 63.73 191.89 64.07 191.89 65.48V69.67C191.89 69.94 191.93 70.01 192.06 70.01C192.22 70.01 192.66 69.7 193.02 69.41V70.01H193.01ZM191.17 67.16C189.42 67.09 187.97 67.85 187.97 69.01C187.97 69.64 188.54 70.12 189.3 70.12C189.94 70.12 190.46 69.88 191.17 69.25V67.16Z" fill="white"/>
<path d="M194.19 74.02H193.46L195.81 69.28L192.98 63.87H193.73L196.17 68.56L198.48 63.87H199.22L194.19 74.02Z" fill="white"/>
<path d="M209.26 61.76C208.21 61.16 207.67 60.98 206.97 60.98C205.74 60.98 204.82 61.82 204.82 62.92C204.82 65.64 209.68 64.34 209.68 67.91C209.68 69.48 208.38 70.71 206.72 70.71C205.88 70.71 205 70.41 204.1 69.81V68.88C205.24 69.7 205.88 69.97 206.67 69.97C207.88 69.97 208.82 69.09 208.82 67.94C208.82 65.04 203.96 66.31 203.96 62.95C203.96 61.44 205.28 60.24 206.89 60.24C207.68 60.24 208.46 60.45 209.25 60.88V61.75L209.26 61.76Z" fill="white"/>
<path d="M215.96 64.85C215.18 64.52 214.78 64.43 214.21 64.43C212.72 64.43 211.69 65.56 211.69 67.24C211.69 68.92 212.69 70.01 214.28 70.01C214.89 70.01 215.34 69.92 216.09 69.62V70.37C215.33 70.62 214.85 70.71 214.22 70.71C212.25 70.71 210.93 69.35 210.93 67.32C210.93 65.29 212.28 63.73 214.19 63.73C214.77 63.73 215.22 63.82 215.97 64.06V64.85H215.96Z" fill="white"/>
<path d="M218.17 65.03H218.2C218.83 64.09 219.44 63.73 220.41 63.73C221.84 63.73 222.91 64.67 222.91 66.47V70.58H222.19V66.75C222.19 65.3 221.65 64.43 220.37 64.43C219.38 64.43 218.79 64.91 218.17 65.87V70.58H217.45V60.38H218.17V65.03Z" fill="white"/>
<path d="M227.9 70.71C225.94 70.71 224.48 69.22 224.48 67.23C224.48 65.24 225.94 63.73 227.9 63.73C229.86 63.73 231.31 65.22 231.31 67.23C231.31 69.24 229.86 70.71 227.9 70.71ZM227.9 64.44C226.38 64.44 225.24 65.62 225.24 67.24C225.24 68.86 226.38 70.02 227.9 70.02C229.42 70.02 230.55 68.84 230.55 67.24C230.55 65.64 229.41 64.44 227.9 64.44Z" fill="white"/>
<path d="M236.01 70.71C234.05 70.71 232.59 69.22 232.59 67.23C232.59 65.24 234.05 63.73 236.01 63.73C237.97 63.73 239.42 65.22 239.42 67.23C239.42 69.24 237.97 70.71 236.01 70.71ZM236.01 64.44C234.49 64.44 233.35 65.62 233.35 67.24C233.35 68.86 234.49 70.02 236.01 70.02C237.53 70.02 238.66 68.84 238.66 67.24C238.66 65.64 237.52 64.44 236.01 64.44Z" fill="white"/>
<path d="M241.83 60.39H241.11V70.58H241.83V60.39Z" fill="white"/>
<path d="M5.22 60.39H4.5V70.58H5.22V60.39Z" fill="white"/>
<path d="M249.46 70.71L248.81 70.43L253.02 61.09H247.46V60.38H254.13L249.46 70.71Z" fill="white"/>
<path d="M262.06 66.6H254.41V67.08H262.06V66.6Z" fill="white"/>
<path d="M266.09 60.39H265.33V70.58H266.09V60.39Z" fill="white"/>
<path d="M270.48 62.97C270.48 61.49 271.72 60.25 273.17 60.25C274.62 60.25 275.89 61.48 275.89 62.96C275.89 63.92 275.46 64.69 274.59 65.28C275.61 65.89 276.1 66.72 276.1 67.81C276.1 69.46 274.83 70.73 273.22 70.73C271.61 70.73 270.29 69.46 270.29 67.87C270.29 66.78 270.81 65.88 271.81 65.28C270.93 64.68 270.48 63.92 270.48 62.98M271.05 67.83C271.05 69.01 271.98 70 273.22 70C274.46 70 275.34 69.04 275.34 67.76C275.34 66.59 274.38 65.67 273.17 65.67C271.96 65.67 271.05 66.66 271.05 67.84M275.13 62.93C275.13 61.84 274.26 60.97 273.17 60.97C272.08 60.97 271.24 61.85 271.24 62.96C271.24 64.07 272.09 64.95 273.2 64.95C274.31 64.95 275.13 64.08 275.13 62.93Z" fill="white"/>
<path d="M24.12 25.99C31.23 27.07 36.83 30.23 36.83 37.41C36.83 42.22 34.17 45.88 29.94 48.25C26.28 50.26 21.54 51.12 15.87 51.12H0V49.11C6.17 48.68 6.6 48.25 6.6 42.22V13.28C6.6 7.32 6.31 6.89 0.57 6.46V4.45H19.02C24.4 4.45 27.56 5.31 29.79 6.89C32.37 8.61 33.81 11.77 33.81 15.07C33.81 21.89 28.14 24.69 24.12 25.77V25.99ZM16.01 25.13C23.91 25.13 27.21 21.97 27.21 15.94C27.21 11.06 24.48 6.75 17.66 6.75C15.87 6.75 14.29 7.04 13.57 7.47C12.92 7.9 12.64 8.69 12.64 11.06V25.13H16.01ZM12.63 42.14C12.63 47.31 13.99 48.67 18.59 48.67C24.48 48.6 29.72 45.58 29.72 38.12C29.72 30.66 24.69 27.5 15.94 27.5H12.64V42.14H12.63ZM65.26 51.97C64.18 51.97 62.68 51.32 61.89 50.61C60.96 49.6 60.53 48.6 60.17 47.38C57.3 49.32 53.85 51.97 51.7 51.97C46.6 51.97 43.09 47.73 43.09 43.21C43.09 39.69 44.96 37.47 48.9 36.1C53.21 34.67 58.45 32.73 60.03 31.43V30.14C60.03 24.97 57.59 22.03 54 22.03C52.56 22.03 51.49 22.6 50.77 23.47C49.84 24.4 49.19 25.98 48.62 28.21C48.33 29.36 47.54 29.86 46.54 29.86C45.25 29.86 43.38 28.43 43.38 26.77C43.38 25.69 44.31 24.9 45.68 23.9C47.69 22.46 52.36 19.66 56.45 18.87C58.6 18.87 60.76 19.52 62.34 20.81C64.85 22.89 65.57 25.83 65.57 29.57V42.92C65.57 46.15 66.86 47.23 68.08 47.23C68.94 47.23 69.95 46.87 70.66 46.44L71.38 48.31L65.28 51.97H65.26ZM60.02 33.88C58.51 34.67 55.07 36.18 53.56 36.89C50.76 38.18 49.18 39.55 49.18 42.13C49.18 45.86 52.05 47.66 54.28 47.66C56.15 47.59 58.66 46.37 60.02 45.08V33.88ZM95.85 51.11V49.24C100.09 48.81 100.59 48.23 100.59 43.28V31.29C100.59 26.34 98.87 23.11 94.06 23.11C91.19 23.11 88.39 24.9 86.24 26.77V43.64C86.24 48.52 86.67 48.81 90.91 49.24V51.11H75.33V49.24C80.21 48.74 80.57 48.38 80.57 43.64V28.78C80.57 24.19 80.14 23.97 76.26 23.25V21.6C79.71 20.95 83.08 20.09 86.24 18.66V24.4C87.68 23.32 89.25 22.25 91.05 21.03C93.06 19.74 94.93 18.88 97.01 18.88C102.68 18.88 106.27 22.83 106.27 29.79V43.64C106.27 48.52 106.63 48.81 110.79 49.24V51.11H95.86H95.85ZM141.51 44.65C138.35 48.81 133.54 51.97 129.31 51.97C120.26 51.97 114.95 44.65 114.95 36.97C114.95 31.44 117.32 26.63 122.13 22.9C125.86 20.03 130.17 18.88 132.97 18.88C135.77 18.88 138.21 19.81 139.36 20.75C140.29 21.54 140.51 22.19 140.51 22.98C140.51 24.49 138.93 26.07 138.14 26.07C137.78 26.07 137.42 25.85 136.78 25.28C134.63 23.27 132.11 22.34 129.6 22.34C124.86 22.34 120.7 26.29 120.7 33.83C120.7 43.81 127.52 47.11 131.54 47.11C134.63 47.11 137 46.25 140.3 43.16L141.52 44.67L141.51 44.65ZM155.73 26.49C157.88 22.9 160.97 18.88 164.42 18.88C166.86 18.88 168.58 20.75 168.58 22.47C168.58 23.91 167.65 25.34 166.28 25.99C165.42 26.35 164.77 26.28 164.34 25.85C163.34 24.77 162.47 24.34 161.33 24.34C159.46 24.34 157.17 26.49 155.59 30.51V43.65C155.59 48.39 155.95 48.82 161.48 49.25V51.12H144.97V49.25C149.42 48.82 149.92 48.39 149.92 43.65V28.79C149.92 24.05 149.56 23.76 145.47 23.19V21.61C148.99 21.04 152.15 20.17 155.59 18.67V26.5H155.73V26.49ZM202.46 34.89C202.46 46.45 193.99 51.97 186.88 51.97C177.05 51.97 171.16 44.07 171.16 36.1C171.16 24.26 180.35 18.87 186.88 18.87C195.78 18.87 202.46 25.98 202.46 34.88M177.84 33.81C177.84 42.85 181.79 49.6 187.68 49.6C192.13 49.6 195.79 46.3 195.79 36.46C195.79 28.06 192.42 21.24 186.17 21.24C181.72 21.24 177.84 25.69 177.84 33.8M240.73 51.11C239.51 51.76 238.43 51.97 237.79 51.97C233.27 51.97 230.75 49.1 230.75 43.43V22.61H217.18V43.57C217.18 48.24 217.68 48.81 222.49 49.24V51.11H206.48V49.24C211 48.74 211.51 48.16 211.51 43.64V22.61H206.48L206.12 21.82L207.99 19.74H211.51V17.95C211.51 15.73 211.8 13.93 212.23 12.42C212.73 10.77 213.95 7.04 217.97 3.81C220.71 1.58 223.22 0.36 225.87 0C228.45 0.07 230.25 1.08 231.25 2.15C231.97 2.94 232.11 3.87 231.75 4.73C231.39 5.38 230.82 6.09 230.03 6.6C229.46 6.96 228.95 6.96 228.31 6.31C227.02 5.02 224.72 3.8 222.78 3.8C221.13 3.8 219.84 4.52 218.9 5.95C217.89 7.46 217.11 10.69 217.18 17.87V19.74H230.75V14.86L235.34 10.05L236.35 10.19V19.74H244.53C245.1 20.39 244.96 22.04 244.03 22.61H236.35V40.99C236.35 46.81 238.72 47.95 240.59 47.95C242.46 47.95 244.04 47.23 245.04 46.73L245.69 48.67L240.74 51.11H240.73ZM257.04 7.47C257.04 12.5 252.37 15.65 247.85 16.8L247.13 14.86C250.58 13.42 252.66 11.77 252.66 8.83C252.66 6.32 250.58 4.81 248.21 4.38C247.71 4.31 247.28 3.81 247.28 2.94C247.28 1 249.07 0.14 250.29 0.14C253.38 0.14 257.04 2.87 257.04 7.46M274.41 28.21C273.05 23.97 270.53 21.1 267.02 21.1C264.29 21.1 262.35 23.25 262.35 26.05C262.35 29.28 265.22 30.93 268.45 32.3C273.83 34.53 277.5 37.11 277.5 42.06C277.5 48.59 271.4 51.97 265.65 51.97C261.99 51.97 258.69 50.61 257.39 49.53C256.89 48.52 256.24 43.64 256.24 41.06L258.11 40.7C259.4 45.44 262.63 49.6 266.94 49.6C269.6 49.6 272.04 47.59 272.04 44.58C272.04 41.57 269.96 39.7 266.37 38.05C262.06 36.04 257.4 33.67 257.4 28.14C257.4 23.11 261.71 18.88 268.31 18.88C271.25 18.88 273.19 19.53 274.7 20.1C275.28 21.75 276.06 25.99 276.28 27.78L274.41 28.21Z" fill="white"/>
</g>
<defs>
<clipPath id="clip0_3888_6">
<rect width="277.5" height="74.02" fill="white"/>
</clipPath>
</defs>
</svg>
